<svg xmlns="http://www.w3.org/2000/svg" width="24.814" height="24.814" viewBox="0 0 24.814 24.814"><defs><style>.a{fill:#fff;}</style></defs><g transform="translate(0)"><path class="a" d="M151,173.99a5.089,5.089,0,1,0,8-4.177v4.177a.727.727,0,0,1-.324.6l-2.181,1.454a.727.727,0,0,1-.806,0l-2.181-1.454a.727.727,0,0,1-.324-.6v-4.177A5.068,5.068,0,0,0,151,173.99Z" transform="translate(-143.682 -161.583)"/><path class="a" d="M228.908,393.662v-6.027a6.561,6.561,0,0,1-2.908,0v6.027Z" transform="translate(-215.047 -368.848)"/><path class="a" d="M24.26,9.52l-2.279-.559c-.108-.3-.232-.591-.371-.884L22.8,6.1a.727.727,0,0,0-.109-.888L19.6,2.126a.727.727,0,0,0-.888-.109L16.737,3.2c-.294-.14-.589-.264-.884-.371L15.294.554A.727.727,0,0,0,14.588,0H10.226A.727.727,0,0,0,9.52.554L8.961,2.832c-.3.108-.591.232-.884.371L6.1,2.017a.727.727,0,0,0-.888.109L2.126,5.21a.727.727,0,0,0-.109.888L3.2,8.076c-.14.294-.264.589-.371.884L.554,9.52A.727.727,0,0,0,0,10.226v4.362a.727.727,0,0,0,.554.706l2.279.559c.108.3.232.591.371.884L2.017,18.716a.727.727,0,0,0,.109.888L5.21,22.688A.727.727,0,0,0,6.1,22.8L8.076,21.61c.294.14.589.264.884.371L9.5,24.175V18.267A6.544,6.544,0,0,1,9.953,6.342a.727.727,0,0,1,1,.674v5l1.454.969,1.454-.969v-5a.727.727,0,0,1,1-.674,6.542,6.542,0,0,1,.453,11.925v5.908l.538-2.193c.3-.108.591-.232.884-.371L18.715,22.8a.727.727,0,0,0,.888-.109L22.688,19.6a.727.727,0,0,0,.109-.888L21.61,16.737c.14-.294.264-.589.371-.884l2.279-.559a.727.727,0,0,0,.554-.706V10.226a.727.727,0,0,0-.554-.706Z"/></g></svg>