<svg xmlns="http://www.w3.org/2000/svg" width="23.957" height="24.239" viewBox="0 0 23.957 24.239"><defs><style>.a{fill:#fff;}</style></defs><g transform="translate(-0.559)"><path class="a" d="M24.5,15.124c-.008-1.8-.013-3.1-.9-4.251a4.7,4.7,0,0,0-3.809-1.554,9.458,9.458,0,0,0,.175-3A6.284,6.284,0,0,0,13.515,0l-.054,0L7.748,0H7.687A6.884,6.884,0,0,0,2.466,1.976a6.79,6.79,0,0,0-1.9,4.509l0,9.217c-.011.174.006.35,0,.531,0,2.622.42,4.51,1.73,5.9a7.548,7.548,0,0,0,5.755,2.1h8.913A7.5,7.5,0,0,0,22.434,22.1a8.056,8.056,0,0,0,2.082-5.67S24.505,15.493,24.5,15.124ZM8.211,4.916l4.882-.006a2.157,2.157,0,0,1,2.05,2.2,2.017,2.017,0,0,1-2.082,1.97l-4.915,0a2.083,2.083,0,0,1,.066-4.166Zm9.176,13.713H7.624a2.083,2.083,0,1,1,0-4.167h9.764a2.083,2.083,0,1,1,0,4.167Z" transform="translate(0)"/></g></svg>