<svg xmlns="http://www.w3.org/2000/svg" width="26.662" height="24.996" viewBox="0 0 26.662 24.996"><defs><style>.a{fill:#fff;}</style></defs><g transform="translate(0 -16)"><g transform="translate(0 16)"><path class="a" d="M13.279,16C5.957,16,0,21.256,0,27.717a10.919,10.919,0,0,0,3.046,7.47,4.75,4.75,0,0,1-1.255,4.475A.782.782,0,0,0,2.343,41a8.613,8.613,0,0,0,5.966-2.41,14.73,14.73,0,0,0,4.97.847c7.322,0,13.383-5.256,13.383-11.717S20.6,16,13.279,16ZM7.134,30.06a2.343,2.343,0,1,1,2.343-2.343A2.346,2.346,0,0,1,7.134,30.06Zm6.249,0a2.343,2.343,0,1,1,2.343-2.343A2.346,2.346,0,0,1,13.383,30.06Zm6.249,0a2.343,2.343,0,1,1,2.343-2.343A2.346,2.346,0,0,1,19.632,30.06Z" transform="translate(0 -16)"/></g></g></svg>