<svg xmlns="http://www.w3.org/2000/svg" width="20.606" height="27.676" viewBox="0 0 20.606 27.676"><defs><style>.a{fill:#fff;}</style></defs><g transform="translate(-51.988 -0.001)"><g transform="translate(51.988 0.001)"><g transform="translate(0 0)"><path class="a" d="M144.822,2.1H142.8a.569.569,0,0,1-.533-.426,2.06,2.06,0,0,0-2.1-1.67,2.1,2.1,0,0,0-2.1,1.705.533.533,0,0,1-.533.391h-1.954V5.651h9.237Z" transform="translate(-129.9 -0.001)"/><path class="a" d="M72.594,83.95V63.593a1.457,1.457,0,0,0-1.453-1.46q-.055,0-.11,0H67.975v1.812c0,.284-.178.675-.462.675H57.033c-.284,0-.426-.391-.426-.675V62.137H53.551a1.457,1.457,0,0,0-1.559,1.346q0,.055,0,.111V83.95a1.6,1.6,0,0,0,1.562,1.634h17.48a1.6,1.6,0,0,0,1.563-1.633ZM59.413,79.26l-2.771,2.593a.5.5,0,0,1-.355.178.569.569,0,0,1-.391-.178L54.44,80.362a.541.541,0,0,1,.782-.746l1.066,1.137L58.7,78.479a.533.533,0,0,1,.711.782Zm0-5.684h0l-2.771,2.593a.5.5,0,0,1-.355.178.569.569,0,0,1-.391-.178L54.44,74.677a.541.541,0,0,1,.782-.746l1.066,1.137L58.7,72.794a.533.533,0,0,1,.711.782Zm0-5.684-2.771,2.593a.5.5,0,0,1-.355.178.569.569,0,0,1-.391-.178L54.44,68.993a.541.541,0,0,1,.782-.746l1.066,1.137L58.7,67.11a.533.533,0,0,1,.711.782ZM69.752,81.321H61.58a.533.533,0,1,1,0-1.066h8.171a.533.533,0,0,1,0,1.066Zm0-5.684H61.58a.533.533,0,1,1,0-1.066h8.171a.533.533,0,0,1,0,1.066Zm0-5.684H61.58a.533.533,0,1,1,0-1.066h8.171a.533.533,0,0,1,0,1.066Z" transform="translate(-51.988 -57.908)"/></g></g></g></svg>