<svg xmlns="http://www.w3.org/2000/svg" width="24.357" height="23.053" viewBox="0 0 24.357 23.053"><defs><style>.a{fill:#fff;}</style></defs><g transform="translate(0 -13.7)"><g transform="translate(0 13.7)"><g transform="translate(0 0)"><path class="a" d="M18.552,119.849l-4.106-2.737a.423.423,0,0,0-.566.092l-1.2,1.537a1.282,1.282,0,0,1-1.642.338l-.221-.121a14.441,14.441,0,0,1-3.761-2.947,14.423,14.423,0,0,1-2.947-3.761l-.122-.221a1.281,1.281,0,0,1,.338-1.642l1.537-1.2a.422.422,0,0,0,.092-.566l-2.737-4.106a.421.421,0,0,0-.566-.127l-1.718,1.03a1.653,1.653,0,0,0-.757.975c-.564,2.055-.09,5.652,5.375,11.117s9.061,5.94,11.118,5.376a1.653,1.653,0,0,0,.975-.757l1.03-1.718A.42.42,0,0,0,18.552,119.849Z" transform="translate(0 -100.02)"/><path class="a" d="M118.416,13.769a.237.237,0,0,0-.17-.069H100.018a.237.237,0,0,0-.239.239v6.333l1.034,1.55a1.3,1.3,0,0,1-.281,1.735L99,24.754a.415.415,0,0,0-.112.532l.125.228a10.969,10.969,0,0,0,1.452,2.116h17.786a.238.238,0,0,0,.239-.234V13.939A.236.236,0,0,0,118.416,13.769Zm-12.36,7.912v0L101.6,26.453a.435.435,0,1,1-.636-.593l4.457-4.772a.435.435,0,1,1,.636.593Zm3.076-.343a1.442,1.442,0,0,1-.87-.287l-7.271-5.514a.436.436,0,1,1,.528-.693l7.268,5.514a.587.587,0,0,0,.69,0l7.27-5.514a.435.435,0,0,1,.526.693L110,21.051A1.442,1.442,0,0,1,109.132,21.338Zm8.175,5.137a.435.435,0,0,1-.615-.021l-4.456-4.775a.435.435,0,0,1,.637-.591l4.455,4.772A.435.435,0,0,1,117.307,26.475Z" transform="translate(-94.129 -13.7)"/></g></g></g></svg>