<svg xmlns="http://www.w3.org/2000/svg" width="26.558" height="26.558" viewBox="0 0 26.558 26.558"><defs><style>.a{fill:#fff;}</style></defs><g transform="translate(-55 -143)"><path class="a" d="M65.236,143h-8.3A1.939,1.939,0,0,0,55,144.936v4.98a1.939,1.939,0,0,0,1.936,1.937h8.3a1.939,1.939,0,0,0,1.937-1.937v-4.98A1.939,1.939,0,0,0,65.236,143Z" transform="translate(0)"/><path class="a" d="M65.236,154.25h-8.3A1.939,1.939,0,0,0,55,156.187v11.619a1.939,1.939,0,0,0,1.936,1.936h8.3a1.939,1.939,0,0,0,1.937-1.936V156.187A1.939,1.939,0,0,0,65.236,154.25Z" transform="translate(0 -0.184)"/><path class="a" d="M79.861,161h-8.3a1.939,1.939,0,0,0-1.937,1.937v4.98a1.939,1.939,0,0,0,1.937,1.936h8.3a1.939,1.939,0,0,0,1.936-1.936v-4.98A1.939,1.939,0,0,0,79.861,161Z" transform="translate(-0.24 -0.295)"/><path class="a" d="M79.861,143h-8.3a1.939,1.939,0,0,0-1.937,1.936v11.619a1.939,1.939,0,0,0,1.937,1.937h8.3a1.938,1.938,0,0,0,1.936-1.937V144.936A1.939,1.939,0,0,0,79.861,143Z" transform="translate(-0.24)"/></g></svg>