<svg xmlns="http://www.w3.org/2000/svg" width="28.779" height="24.989" viewBox="0 0 28.779 24.989"><defs><style>.a{fill:#005be7;}</style></defs><g transform="translate(0 -33.714)"><path class="a" d="M5.9,168.773H0v17.4H5.9Zm-2,11.386H2v-1.686H3.9Zm0-3.8H2v-1.686H3.9Zm-1.9-3.8v-1.686H3.9v1.686Z" transform="translate(0 -127.467)"/><path class="a" d="M406.954,186.171h5.9v-17.4h-5.9Zm2-15.288h1.9v1.686h-1.9Zm0,3.8h1.9v1.686h-1.9Zm1.9,3.8v1.686h-1.9v-1.686Z" transform="translate(-384.079 -127.467)"/><path class="a" d="M203.477,438.865h2.109v2.216h-2.109Z" transform="translate(-192.04 -382.378)"/><path class="a" d="M271,438.865h2.109v2.216H271Z" transform="translate(-255.767 -382.378)"/><path class="a" d="M135.046,58.7h2.16V54.8h9.277v3.9h2.16V33.714h-13.6Zm7.748-6.011h-1.9V51.006h1.9Zm0-3.8h-1.9V47.21h1.9Zm0-3.8h-1.9V43.415h1.9Zm3.8,7.591h-1.9V51.006h1.9Zm0-3.8h-1.9V47.21h1.9Zm0-3.8h-1.9V43.415h1.9ZM139,37.724h2v-2h1.686v2h2V39.41h-2v2H141v-2h-2Zm-1.9,5.691H139V45.1h-1.9Zm0,3.8H139V48.9h-1.9Zm0,3.8H139v1.686h-1.9Z" transform="translate(-127.455)"/></g></svg>