<svg xmlns="http://www.w3.org/2000/svg" width="27.403" height="28.247" viewBox="0 0 27.403 28.247"><defs><style>.a{fill:#fff;}</style></defs><g transform="translate(-7.653)"><path class="a" d="M149.675,17.329a8.665,8.665,0,1,0-8.6-8.665A8.64,8.64,0,0,0,149.675,17.329Zm-2.762-5.961a.827.827,0,0,1,1.145-.239,2.069,2.069,0,0,0,1.5.393,1.226,1.226,0,0,0,1.217-1.034A.927.927,0,0,0,150.1,9.4a8.513,8.513,0,0,1-2.337-1.124,2.183,2.183,0,0,1-.727-2.149,2.44,2.44,0,0,1,1.675-1.911l.023-.007V3.9a.827.827,0,0,1,1.654,0v.261a3.111,3.111,0,0,1,1.113.51.827.827,0,1,1-.99,1.325,1.462,1.462,0,0,0-1.323-.193.8.8,0,0,0-.526.634.574.574,0,0,0,.122.541,7.378,7.378,0,0,0,1.867.866,2.58,2.58,0,0,1,1.752,2.92,2.931,2.931,0,0,1-.9,1.665,2.8,2.8,0,0,1-1.113.63v.376a.827.827,0,0,1-1.654,0v-.293a3.475,3.475,0,0,1-1.586-.626.827.827,0,0,1-.239-1.145Z" transform="translate(-126.069)"/><path class="a" d="M10.366,364.694H8.48a.827.827,0,0,0-.827.827V372a.827.827,0,0,0,.827.827h1.886v-8.138Z" transform="translate(0 -344.586)"/><path class="a" d="M109.647,318.7a3.98,3.98,0,0,0-5.623,0l-2.478,2.477-1.015,1.015a2.188,2.188,0,0,1-1.547.641H94.046a.844.844,0,0,1-.851-.788.828.828,0,0,1,.827-.868h5.019a2.083,2.083,0,0,0,2.058-1.712,4.081,4.081,0,0,0,.061-.7.829.829,0,0,0-.828-.829h-2.75a6.5,6.5,0,0,1-2.676-.839,8.557,8.557,0,0,0-3.108-1,8.757,8.757,0,0,0-3.019.329,2.677,2.677,0,0,0-1.915,2.335h-.011v8.132l14.249,0a3.644,3.644,0,0,0,2.594-1.074l5.951-5.951A.828.828,0,0,0,109.647,318.7Z" transform="translate(-74.833 -298.648)"/></g></svg>