<svg xmlns="http://www.w3.org/2000/svg" width="24.562" height="24.562" viewBox="0 0 24.562 24.562"><defs><style>.a{fill:#fff;}</style></defs><path class="a" d="M23.684,6.14H19.3V.877A.877.877,0,0,0,18.421,0H.877A.877.877,0,0,0,0,.877V21.053a3.509,3.509,0,0,0,3.509,3.509H21.053a3.509,3.509,0,0,0,3.509-3.509V7.018A.877.877,0,0,0,23.684,6.14ZM7.018,4.386h5.263a.877.877,0,0,1,0,1.754H7.018a.877.877,0,1,1,0-1.754Zm7.895,16.667H4.386a.877.877,0,1,1,0-1.754H14.912a.877.877,0,0,1,0,1.754Zm0-3.509H4.386a.877.877,0,1,1,0-1.754H14.912a.877.877,0,0,1,0,1.754Zm0-3.509H4.386a.877.877,0,0,1,0-1.754H14.912a.877.877,0,0,1,0,1.754Zm0-3.509H4.386a.877.877,0,0,1,0-1.754H14.912a.877.877,0,0,1,0,1.754Zm7.895,10.526a1.754,1.754,0,0,1-3.509,0V7.895h3.509V21.053Z"/></svg>