<svg xmlns="http://www.w3.org/2000/svg" width="21.549" height="26.27" viewBox="0 0 21.549 26.27"><defs><style>.a{fill:#fff;}</style></defs><g transform="translate(-45.999)"><path class="a" d="M65.843,195H47.7l.173,1.564,0-.025H46v1.539h2.046l-.079-.712,1.192,10.768H64.389l.557-5.028.557-5.028h2.046v-1.539H65.673Zm-17.96,1.621.068.614Zm5.045,9.474-.77-9.235,1.534-.128.77,9.235Zm4.615-.064H56V196.8h1.539Zm3.076.064-1.534-.128.77-9.235,1.534.128Z" transform="translate(0 -184.995)"/><path class="a" d="M136,483.065h12.314V481.5H136Z" transform="translate(-85.383 -456.795)"/><path class="a" d="M46,90v3.848H67.549V90Z" transform="translate(-0.001 -85.382)"/><path class="a" d="M120,0H108.354l-1.847,3.078h15.34Z" transform="translate(-57.403)"/></g></svg>