<svg xmlns="http://www.w3.org/2000/svg" width="26" height="26" viewBox="0 0 26 26"><defs><style>.a{fill:#fff;}</style></defs><path class="a" d="M25.92,11.556a.847.847,0,0,0-.836-.64,2.87,2.87,0,0,1-1.965-5,.722.722,0,0,0,.079-.981,12.87,12.87,0,0,0-2.059-2.08.724.724,0,0,0-.988.08,3,3,0,0,1-3.242.728A2.887,2.887,0,0,1,15.153.845a.721.721,0,0,0-.638-.76A12.973,12.973,0,0,0,11.59.078a.724.724,0,0,0-.644.744A2.893,2.893,0,0,1,9.166,3.6a3,3,0,0,1-3.218-.733.725.725,0,0,0-.981-.082,12.923,12.923,0,0,0-2.1,2.079.723.723,0,0,0,.077.988,2.881,2.881,0,0,1,.727,3.244A3,3,0,0,1,.84,10.849a.707.707,0,0,0-.751.639,13.032,13.032,0,0,0-.006,2.956.86.86,0,0,0,.853.64,2.852,2.852,0,0,1,2.675,1.781,2.892,2.892,0,0,1-.727,3.215.722.722,0,0,0-.079.979,12.915,12.915,0,0,0,2.056,2.081.723.723,0,0,0,.99-.078,2.992,2.992,0,0,1,3.241-.729,2.884,2.884,0,0,1,1.759,2.821.722.722,0,0,0,.638.76,12.944,12.944,0,0,0,2.925.008.723.723,0,0,0,.643-.744A2.89,2.89,0,0,1,16.835,22.4a3,3,0,0,1,3.22.732.726.726,0,0,0,.981.082,12.941,12.941,0,0,0,2.1-2.079.722.722,0,0,0-.077-.988,2.88,2.88,0,0,1-.728-3.243,2.91,2.91,0,0,1,2.659-1.762l.161,0a.724.724,0,0,0,.761-.638A12.975,12.975,0,0,0,25.92,11.556ZM13,20.494a7.494,7.494,0,1,1,6.435-3.652L16.154,13.56a4.6,4.6,0,0,0-5.443-6.227.52.52,0,0,0-.36.363.508.508,0,0,0,.144.5s1.62,1.633,2.162,2.175a.336.336,0,0,1,.049.241l-.005.036a10.362,10.362,0,0,1-.247,1.586l-.035.033-.036.037a10.213,10.213,0,0,1-1.61.25v0l-.027.007h-.026a.346.346,0,0,1-.249-.106c-.564-.564-2.121-2.11-2.121-2.11a.529.529,0,0,0-.378-.168.514.514,0,0,0-.485.391A4.6,4.6,0,0,0,13.717,16l3.317,3.317A7.457,7.457,0,0,1,13,20.494Z" transform="translate(-0.002 0.001)"/></svg>