<svg xmlns="http://www.w3.org/2000/svg" width="26.833" height="20.742" viewBox="0 0 26.833 20.742"><defs><style>.a{fill:#fff;}</style></defs><g transform="translate(0 -57.979)"><g transform="translate(3.161 63.518)"><path class="a" d="M64.545,210.124h-4.35V200.4a.438.438,0,0,1,.438-.438h3.473a.438.438,0,0,1,.438.438Z" transform="translate(-60.195 -198.042)"/><path class="a" d="M218.389,175.535h-4.35V163.891a.438.438,0,0,1,.438-.438h3.473a.438.438,0,0,1,.438.438Z" transform="translate(-205.959 -163.453)"/><path class="a" d="M372.233,222.73h-4.35V213.7a.438.438,0,0,1,.438-.438h3.473a.438.438,0,0,1,.438.438Z" transform="translate(-351.723 -210.648)"/></g><g transform="translate(0 77.145)"><path class="a" d="M26.045,424.5H.788a.788.788,0,0,1,0-1.576H26.045a.788.788,0,0,1,0,1.576Z" transform="translate(0 -422.922)"/></g><path class="a" d="M37.739,60.976a.789.789,0,0,0-.605-.836l-2.545-.619a.788.788,0,1,0-.372,1.531l.72.175L32.9,62.487l-7.738-4.405a.787.787,0,0,0-.724-.029l-7.692,3.61-3.677-2.295a.788.788,0,1,0-.834,1.337l4.041,2.522a.788.788,0,0,0,.752.045l7.71-3.619,7.789,4.435a.813.813,0,0,0,.8-.014L35.8,62.547l-.165.772a.788.788,0,0,0,1.541.329l.546-2.557A.917.917,0,0,0,37.739,60.976Z" transform="translate(-11.236)"/></g></svg>