<svg xmlns="http://www.w3.org/2000/svg" width="22.42" height="25.194" viewBox="0 0 22.42 25.194"><defs><style>.a{fill:#fff;}</style></defs><g transform="translate(-0.902 0)"><g transform="translate(0.902 0)"><path class="a" d="M4.385,7.758a1.475,1.475,0,0,0,.366.8c.355,2.369,2.34,4.569,4.15,4.569,2.112,0,4.035-2.38,4.407-4.564a1.464,1.464,0,0,0,.372-.8c.12-.445.277-1.217,0-1.577L13.64,6.13c.255-.932.58-2.858-.577-4.17A4.232,4.232,0,0,0,10.929.646L10.272.417A10.672,10.672,0,0,0,8.469,0a.437.437,0,0,0-.148.012.779.779,0,0,1-.268.032,1.842,1.842,0,0,0-.72.123,5.162,5.162,0,0,0-2.84,2.844,6.385,6.385,0,0,0,.025,3.041.532.532,0,0,0-.135.128C4.11,6.543,4.263,7.313,4.385,7.758Zm.828-4.464c0-.009.008-.02.012-.032A4.456,4.456,0,0,1,7.608.889,1.246,1.246,0,0,1,7.945.811a1.541,1.541,0,0,0,.5-.034,10.557,10.557,0,0,1,1.581.372l.665.228a3.54,3.54,0,0,1,1.758,1.052.356.356,0,0,1,.025.029c1.069,1.2.52,3.2.325,3.78a.384.384,0,0,0,.088.389.391.391,0,0,0,.177.106,3.483,3.483,0,0,1-.135.838l-.009.043a.666.666,0,0,1-.2.44.4.4,0,0,0-.154.257c-.255,1.831-1.951,4.044-3.664,4.044-1.443,0-3.161-2.038-3.4-4.037a.376.376,0,0,0-.152-.262.686.686,0,0,1-.2-.442.209.209,0,0,0-.009-.045A3.713,3.713,0,0,1,5,6.775a.393.393,0,0,0,.206-.082.385.385,0,0,0,.142-.377A6.673,6.673,0,0,1,5.213,3.294Z" transform="translate(0.89 0)"/><path class="a" d="M18.319,10.241a13.744,13.744,0,0,0-2.854-1.292c-1.724-.609-1.737-1.215-1.737-1.215-3.389,6.683-5.963.022-5.963.022-.237.9-3.727,1.96-3.727,1.96a3.351,3.351,0,0,0-1.451.978C1.08,12.93.9,17.906.9,17.906c.02,1.137.511,1.255.511,1.255,3.467,1.548,8.91,1.823,8.91,1.823a27.191,27.191,0,0,0,4.155-.237,6.066,6.066,0,0,1,3.841-10.507Z" transform="translate(-0.902 4.163)"/><path class="a" d="M14,9.963A4.933,4.933,0,1,0,18.929,14.9,4.939,4.939,0,0,0,14,9.963Zm-.325,7.359a.27.27,0,0,1-.378,0L10.919,14.93a.266.266,0,0,1,0-.377l.568-.568a.27.27,0,0,1,.378,0l1.62,1.632,3.146-3.144a.267.267,0,0,1,.378,0l.565.565a.271.271,0,0,1,0,.382Z" transform="translate(3.491 5.364)"/></g></g></svg>